<svg width="20" height="23" viewBox="0 0 20 23" fill="none" xmlns="http://www.w3.org/2000/svg">
<path d="M16.4972 21.6274C15.2373 22.7751 13.8616 22.5939 12.5373 22.0502C11.1359 21.4945 9.85027 21.4703 8.37174 22.0502C6.52036 22.7993 5.54324 22.5818 4.43756 21.6274C-1.83656 15.5502 -0.910868 6.29555 6.2118 5.95726C7.94746 6.04183 9.156 6.85131 10.1717 6.9238C11.6888 6.63384 13.1416 5.8002 14.7616 5.90893C16.7029 6.05391 18.1686 6.77882 19.1329 8.08366C15.1216 10.343 16.073 15.3086 19.75 16.698C19.0172 18.5103 18.0658 20.3104 16.4844 21.6394L16.4972 21.6274ZM10.0431 5.88477C9.85027 3.19053 12.1773 0.967473 14.8516 0.75C15.2244 3.86711 11.8431 6.18681 10.0431 5.88477Z" fill="white"/>
</svg>
