<svg width="119" height="97" viewBox="0 0 119 97" fill="none" xmlns="http://www.w3.org/2000/svg">
<path d="M118 1H118.5V0.5H118V1ZM118 93V93.5H118.5V93H118ZM0.146447 92.6464C-0.0488155 92.8417 -0.0488155 93.1583 0.146447 93.3536L3.32843 96.5355C3.52369 96.7308 3.84027 96.7308 4.03553 96.5355C4.2308 96.3403 4.2308 96.0237 4.03553 95.8284L1.20711 93L4.03553 90.1716C4.2308 89.9763 4.2308 89.6597 4.03553 89.4645C3.84027 89.2692 3.52369 89.2692 3.32843 89.4645L0.146447 92.6464ZM0.5 1.5H118V0.5H0.5V1.5ZM117.5 1V93H118.5V1H117.5ZM118 92.5H0.5V93.5H118V92.5Z" fill="#1E1E1E"/>
</svg>
