<svg width="164" height="165" viewBox="0 0 164 165" fill="none" xmlns="http://www.w3.org/2000/svg">
<path fill-rule="evenodd" clip-rule="evenodd" d="M-51.0223 -119.25C-124.891 -83.6155 -155.885 5.1541 -120.25 79.0223C-84.6155 152.891 4.1541 183.885 78.0223 148.25C151.891 112.616 182.885 23.8459 147.25 -50.0223C111.616 -123.891 22.8459 -154.885 -51.0223 -119.25ZM-51.4568 -120.151C-125.822 -84.2762 -157.026 5.09115 -121.151 79.4568C-85.2762 153.822 4.09116 185.026 78.4568 149.151C152.822 113.276 184.026 23.9088 148.151 -50.4568C112.276 -124.822 22.9088 -156.026 -51.4568 -120.151ZM-39.7154 -95.8118C-100.639 -66.4218 -126.202 6.79182 -96.8118 67.7153C-67.4217 128.639 5.79185 154.202 66.7153 124.812C127.639 95.4216 153.202 22.2081 123.812 -38.7154C94.4217 -99.6389 21.2081 -125.202 -39.7154 -95.8118ZM-40.1499 -96.7125C-101.571 -67.0825 -127.342 6.72889 -97.7124 68.1498C-68.0824 129.571 5.72893 155.342 67.1498 125.712C128.571 96.0823 154.342 22.271 124.712 -39.1499C95.0824 -100.571 21.271 -126.342 -40.1499 -96.7125ZM-75.7715 57.5654C-99.5559 8.26213 -78.8687 -50.9871 -29.5654 -74.7715C19.7379 -98.5559 78.9872 -77.8687 102.772 -28.5653C126.556 20.738 105.869 79.9872 56.5654 103.772C7.2621 127.556 -51.9872 106.869 -75.7715 57.5654ZM-76.6722 57.9999C-100.697 8.19918 -79.8006 -51.6478 -29.9999 -75.6722C19.8009 -99.6965 79.6479 -78.8006 103.672 -28.9998C127.697 20.8009 106.801 80.6479 56.9999 104.672C7.19916 128.697 -52.6479 107.801 -76.6722 57.9999ZM-18.8698 -52.6003C-55.9282 -34.723 -71.4776 9.81132 -53.6003 46.8698C-35.7229 83.9282 8.81133 99.4776 45.8698 81.6003C82.9282 63.7229 98.4776 19.1887 80.6003 -17.8698C62.723 -54.9282 18.1887 -70.4776 -18.8698 -52.6003ZM-19.3043 -53.501C-56.8602 -35.3837 -72.6183 9.74836 -54.5009 47.3043C-36.3837 84.8602 8.74837 100.618 46.3043 82.5009C83.8602 64.3837 99.6183 19.2516 81.501 -18.3043C63.3837 -55.8602 18.2516 -71.6183 -19.3043 -53.501ZM-29.2821 35.1384C-40.6804 11.5106 -30.7663 -16.8838 -7.13844 -28.2821C16.4894 -39.6804 44.8838 -29.7663 56.2821 -6.13845C67.6804 17.4894 57.7663 45.8838 34.1385 57.2821C10.5106 68.6803 -17.8838 58.7663 -29.2821 35.1384ZM-30.1827 35.5729C-41.821 11.4476 -31.6982 -17.5445 -7.57294 -29.1827C16.5524 -40.821 45.5445 -30.6983 57.1827 -6.57295C68.821 17.5524 58.6983 46.5445 34.5729 58.1827C10.4476 69.821 -18.5445 59.6982 -30.1827 35.5729Z" fill="url(#paint0_linear_659_856)"/>
<defs>
<linearGradient id="paint0_linear_659_856" x1="75.5625" y1="116.684" x2="54.7412" y2="-102.545" gradientUnits="userSpaceOnUse">
<stop stop-color="#DEDEDE"/>
<stop offset="1" stop-color="#787878"/>
</linearGradient>
</defs>
</svg>
