<svg width="28" height="30" viewBox="0 0 28 30" fill="none" xmlns="http://www.w3.org/2000/svg">
<path d="M24.5 12H26C26.3978 12 26.7794 12.158 27.0607 12.4393C27.342 12.7206 27.5 13.1022 27.5 13.5V28.5C27.5 28.8978 27.342 29.2794 27.0607 29.5607C26.7794 29.842 26.3978 30 26 30H2C1.60218 30 1.22064 29.842 0.93934 29.5607C0.658035 29.2794 0.5 28.8978 0.5 28.5V13.5C0.5 13.1022 0.658035 12.7206 0.93934 12.4393C1.22064 12.158 1.60218 12 2 12H3.5V10.5C3.5 7.71523 4.60625 5.04451 6.57538 3.07538C8.54451 1.10625 11.2152 0 14 0C16.7848 0 19.4555 1.10625 21.4246 3.07538C23.3938 5.04451 24.5 7.71523 24.5 10.5V12ZM3.5 15V27H24.5V15H3.5ZM12.5 18H15.5V24H12.5V18ZM21.5 12V10.5C21.5 8.51088 20.7098 6.60322 19.3033 5.1967C17.8968 3.79018 15.9891 3 14 3C12.0109 3 10.1032 3.79018 8.6967 5.1967C7.29018 6.60322 6.5 8.51088 6.5 10.5V12H21.5Z" fill="#1E1E1E"/>
</svg>
