<svg width="24" height="30" viewBox="0 0 24 30" fill="none" xmlns="http://www.w3.org/2000/svg">
<path fill-rule="evenodd" clip-rule="evenodd" d="M0.150024 1.4999C0.150024 0.754318 0.75444 0.149902 1.50002 0.149902H15C15.3581 0.149902 15.7014 0.292134 15.9546 0.545308L23.4546 8.04531C23.7078 8.29848 23.85 8.64186 23.85 8.9999V25.4999C23.85 26.6536 23.3917 27.76 22.5759 28.5758C21.7602 29.3916 20.6537 29.8499 19.5 29.8499H4.50002C3.34633 29.8499 2.23989 29.3916 1.42411 28.5758C0.608327 27.76 0.150024 26.6536 0.150024 25.4999V1.4999ZM2.85002 2.8499V25.4999C2.85002 25.9375 3.02386 26.3572 3.3333 26.6666C3.64273 26.9761 4.06242 27.1499 4.50002 27.1499H19.5C19.9376 27.1499 20.3573 26.9761 20.6667 26.6666C20.9762 26.3572 21.15 25.9375 21.15 25.4999V9.55909L14.4408 2.8499H2.85002Z" fill="#1E1E1E"/>
</svg>
