<svg width="28" height="28" viewBox="0 0 28 28" fill="none" xmlns="http://www.w3.org/2000/svg">
<path fill-rule="evenodd" clip-rule="evenodd" d="M5 3.5C4.60217 3.5 4.22064 3.65804 3.93934 3.93934C3.65804 4.22064 3.5 4.60217 3.5 5V8C3.5 8.82843 2.82843 9.5 2 9.5C1.17157 9.5 0.5 8.82843 0.5 8V5C0.5 3.80653 0.974105 2.66193 1.81802 1.81802C2.66193 0.974105 3.80653 0.5 5 0.5H8C8.82843 0.5 9.5 1.17157 9.5 2C9.5 2.82843 8.82843 3.5 8 3.5H5ZM18.5 2C18.5 1.17157 19.1716 0.5 20 0.5H23C24.1935 0.5 25.3381 0.974106 26.182 1.81802C27.0259 2.66193 27.5 3.80653 27.5 5V8C27.5 8.82843 26.8284 9.5 26 9.5C25.1716 9.5 24.5 8.82843 24.5 8V5C24.5 4.60218 24.342 4.22064 24.0607 3.93934C23.7794 3.65804 23.3978 3.5 23 3.5H20C19.1716 3.5 18.5 2.82843 18.5 2ZM5 14C5 13.1716 5.67157 12.5 6.5 12.5H21.5C22.3284 12.5 23 13.1716 23 14C23 14.8284 22.3284 15.5 21.5 15.5H6.5C5.67157 15.5 5 14.8284 5 14ZM2 18.5C2.82843 18.5 3.5 19.1716 3.5 20V23C3.5 23.3978 3.65804 23.7794 3.93934 24.0607C4.22064 24.342 4.60218 24.5 5 24.5H8C8.82843 24.5 9.5 25.1716 9.5 26C9.5 26.8284 8.82843 27.5 8 27.5H5C3.80653 27.5 2.66193 27.0259 1.81802 26.182C0.974106 25.3381 0.5 24.1935 0.5 23V20C0.5 19.1716 1.17157 18.5 2 18.5ZM26 18.5C26.8284 18.5 27.5 19.1716 27.5 20V23C27.5 24.1935 27.0259 25.3381 26.182 26.182C25.3381 27.0259 24.1935 27.5 23 27.5H20C19.1716 27.5 18.5 26.8284 18.5 26C18.5 25.1716 19.1716 24.5 20 24.5H23C23.3978 24.5 23.7794 24.342 24.0607 24.0607C24.342 23.7794 24.5 23.3978 24.5 23V20C24.5 19.1716 25.1716 18.5 26 18.5Z" fill="#1E1E1E"/>
</svg>
