<svg width="30" height="24" viewBox="0 0 30 24" fill="none" xmlns="http://www.w3.org/2000/svg">
<path d="M19.935 9.435L15.765 13.605C15.5156 13.5372 15.2585 13.5019 15 13.5C14.2043 13.5 13.4413 13.8161 12.8787 14.3787C12.3161 14.9413 12 15.7044 12 16.5C12.0019 16.7585 12.0372 17.0156 12.105 17.265L10.935 18.435C10.7944 18.5744 10.6828 18.7403 10.6067 18.9231C10.5305 19.1059 10.4913 19.302 10.4913 19.5C10.4913 19.698 10.5305 19.8941 10.6067 20.0769C10.6828 20.2597 10.7944 20.4256 10.935 20.565C11.0744 20.7056 11.2403 20.8172 11.4231 20.8933C11.6059 20.9695 11.802 21.0087 12 21.0087C12.198 21.0087 12.3941 20.9695 12.5769 20.8933C12.7597 20.8172 12.9256 20.7056 13.065 20.565L14.235 19.395C14.4844 19.4628 14.7415 19.4981 15 19.5C15.7956 19.5 16.5587 19.1839 17.1213 18.6213C17.6839 18.0587 18 17.2956 18 16.5C17.9981 16.2415 17.9628 15.9844 17.895 15.735L22.065 11.565C22.3475 11.2825 22.5061 10.8995 22.5061 10.5C22.5061 10.1005 22.3475 9.71746 22.065 9.435C21.7825 9.15254 21.3995 8.99386 21 8.99386C20.6005 8.99386 20.2175 9.15254 19.935 9.435ZM15 0C13.0302 0 11.0796 0.387987 9.25974 1.14181C7.43986 1.89563 5.78627 3.00052 4.3934 4.3934C1.58035 7.20644 -2.95253e-06 11.0218 -2.95253e-06 15C-0.00831055 17.971 0.87474 20.8762 2.535 23.34C2.75778 23.6702 3.10261 23.8984 3.49362 23.9743C3.88463 24.0503 4.2898 23.9678 4.62 23.745C4.95019 23.5222 5.17836 23.1774 5.25431 22.7864C5.33027 22.3954 5.24778 21.9902 5.025 21.66C3.81677 19.8533 3.12192 17.7524 3.01463 15.5816C2.90734 13.4108 3.39164 11.2516 4.41582 9.33455C5.44001 7.41752 6.96562 5.81465 8.82975 4.69708C10.6939 3.57951 12.8265 2.98921 15 2.98921C17.1735 2.98921 19.3061 3.57951 21.1702 4.69708C23.0344 5.81465 24.56 7.41752 25.5842 9.33455C26.6084 11.2516 27.0927 13.4108 26.9854 15.5816C26.8781 17.7524 26.1832 19.8533 24.975 21.66C24.8644 21.8234 24.7872 22.007 24.7477 22.2003C24.7083 22.3937 24.7073 22.5928 24.7449 22.7865C24.7825 22.9802 24.858 23.1646 24.967 23.329C25.076 23.4935 25.2163 23.6349 25.38 23.745C25.6283 23.9119 25.9208 24.0007 26.22 24C26.4657 24.0004 26.7077 23.9404 26.9248 23.8253C27.1419 23.7102 27.3274 23.5436 27.465 23.34C29.1253 20.8762 30.0083 17.971 30 15C30 11.0218 28.4196 7.20644 25.6066 4.3934C22.7936 1.58035 18.9782 0 15 0Z" fill="#1E1E1E"/>
</svg>
