<svg width="46" height="41" viewBox="0 0 46 41" fill="none" xmlns="http://www.w3.org/2000/svg">
<rect x="0.793541" y="0.861206" width="44.5625" height="39.788" rx="7.16183" fill="#D7102A"/>
<path fill-rule="evenodd" clip-rule="evenodd" d="M13.6558 11.3362C14.4185 10.5735 15.4529 10.145 16.5315 10.145H19.8037C20.2432 10.145 20.5995 10.5013 20.5995 10.9408C20.5995 11.3803 20.2432 11.7365 19.8037 11.7365H16.5315C15.875 11.7365 15.2454 11.9973 14.7812 12.4615C14.317 12.9258 14.0562 13.5554 14.0562 14.2119V17.484C14.0562 17.9235 13.6999 18.2798 13.2604 18.2798C12.8209 18.2798 12.4647 17.9235 12.4647 17.484V14.2119C12.4647 13.1333 12.8931 12.0989 13.6558 11.3362ZM25.5501 10.9408C25.5501 10.5013 25.9064 10.145 26.3459 10.145H29.6181C30.6967 10.145 31.7311 10.5735 32.4938 11.3362C33.2564 12.0989 33.6849 13.1333 33.6849 14.2119V17.484C33.6849 17.9235 33.3286 18.2798 32.8892 18.2798C32.4497 18.2798 32.0934 17.9235 32.0934 17.484V14.2119C32.0934 13.5554 31.8326 12.9258 31.3684 12.4615C30.9042 11.9973 30.2746 11.7365 29.6181 11.7365H26.3459C25.9064 11.7365 25.5501 11.3803 25.5501 10.9408ZM16.2485 13.9289C16.5768 13.6006 17.0221 13.4161 17.4864 13.4161H20.3512C20.8155 13.4161 21.2608 13.6006 21.5891 13.9289C21.9174 14.2572 22.1018 14.7025 22.1018 15.1668V18.0315C22.1018 18.4958 21.9174 18.9411 21.5891 19.2694C21.2608 19.5977 20.8155 19.7822 20.3512 19.7822H17.4864C17.0221 19.7822 16.5768 19.5977 16.2485 19.2694C15.9202 18.9411 15.7358 18.4958 15.7358 18.0315V15.1668C15.7358 14.7025 15.9202 14.2572 16.2485 13.9289ZM17.4864 15.0076C17.4442 15.0076 17.4038 15.0244 17.3739 15.0543C17.3441 15.0841 17.3273 15.1246 17.3273 15.1668V18.0315C17.3273 18.0737 17.3441 18.1142 17.3739 18.1441C17.4038 18.1739 17.4442 18.1907 17.4864 18.1907H20.3512C20.3934 18.1907 20.4339 18.1739 20.4637 18.1441C20.4936 18.1142 20.5103 18.0737 20.5103 18.0315V15.1668C20.5103 15.1246 20.4936 15.0841 20.4637 15.0543C20.4339 15.0244 20.3934 15.0076 20.3512 15.0076H17.4864ZM24.5605 13.9289C24.8888 13.6006 25.3341 13.4161 25.7984 13.4161H28.6631C29.1274 13.4161 29.5727 13.6006 29.9011 13.9289C30.2294 14.2572 30.4138 14.7025 30.4138 15.1668V18.0315C30.4138 18.4958 30.2294 18.9411 29.9011 19.2694C29.5727 19.5977 29.1275 19.7822 28.6631 19.7822H25.7984C25.3341 19.7822 24.8888 19.5977 24.5605 19.2694C24.2322 18.9411 24.0477 18.4958 24.0477 18.0315V15.1668C24.0477 14.7025 24.2322 14.2572 24.5605 13.9289ZM25.7984 15.0076C25.7562 15.0076 25.7157 15.0244 25.6859 15.0543C25.656 15.0841 25.6393 15.1246 25.6393 15.1668V18.0315C25.6393 18.0737 25.656 18.1142 25.6859 18.1441C25.7157 18.1739 25.7562 18.1907 25.7984 18.1907H28.6631C28.7054 18.1907 28.7458 18.1739 28.7757 18.1441C28.8055 18.1142 28.8223 18.0737 28.8223 18.0315V15.1668C28.8223 15.1246 28.8055 15.0841 28.7757 15.0543C28.7458 15.0244 28.7054 15.0076 28.6631 15.0076H25.7984ZM16.2485 22.2207C16.5768 21.8924 17.0221 21.7079 17.4864 21.7079H20.3512C20.8155 21.7079 21.2608 21.8924 21.5891 22.2207C21.9174 22.549 22.1018 22.9943 22.1018 23.4586V26.3233C22.1018 26.7876 21.9174 27.2329 21.5891 27.5612C21.2608 27.8896 20.8155 28.074 20.3512 28.074H17.4864C17.0221 28.074 16.5768 27.8896 16.2485 27.5612C15.9202 27.2329 15.7358 26.7876 15.7358 26.3233V23.4586C15.7358 22.9943 15.9202 22.549 16.2485 22.2207ZM17.4864 23.2994C17.4442 23.2994 17.4038 23.3162 17.3739 23.3461C17.3441 23.3759 17.3273 23.4164 17.3273 23.4586V26.3233C17.3273 26.3655 17.3441 26.406 17.3739 26.4359C17.4038 26.4657 17.4442 26.4825 17.4864 26.4825H20.3512C20.3934 26.4825 20.4339 26.4657 20.4637 26.4359C20.4936 26.406 20.5103 26.3655 20.5103 26.3233V23.4586C20.5103 23.4164 20.4936 23.3759 20.4637 23.3461C20.4339 23.3162 20.3934 23.2994 20.3512 23.2994H17.4864ZM24.5605 22.2408C24.8888 21.9125 25.3341 21.7281 25.7984 21.7281H28.6631C29.1275 21.7281 29.5727 21.9125 29.9011 22.2408C30.2294 22.5692 30.4138 23.0145 30.4138 23.4788V26.3435C30.4138 26.8078 30.2294 27.2531 29.9011 27.5814C29.5727 27.9097 29.1274 28.0942 28.6631 28.0942H25.7984C25.3341 28.0942 24.8888 27.9097 24.5605 27.5814C24.2322 27.2531 24.0477 26.8078 24.0477 26.3435V23.4788C24.0477 23.0145 24.2322 22.5692 24.5605 22.2408ZM25.7984 23.3196C25.7562 23.3196 25.7157 23.3364 25.6859 23.3662C25.656 23.3961 25.6393 23.4365 25.6393 23.4788V26.3435C25.6393 26.3857 25.656 26.4262 25.6859 26.456C25.7157 26.4859 25.7562 26.5026 25.7984 26.5026H28.6631C28.7054 26.5026 28.7458 26.4859 28.7757 26.456C28.8055 26.4262 28.8223 26.3857 28.8223 26.3435V23.4788C28.8223 23.4365 28.8055 23.3961 28.7757 23.3662C28.7458 23.3364 28.7054 23.3196 28.6631 23.3196H25.7984ZM13.2604 23.2305C13.6999 23.2305 14.0562 23.5868 14.0562 24.0262V27.2984C14.0562 27.9549 14.317 28.5845 14.7812 29.0487C15.2454 29.5129 15.875 29.7737 16.5315 29.7737H19.8037C20.2432 29.7737 20.5995 30.13 20.5995 30.5695C20.5995 31.009 20.2432 31.3653 19.8037 31.3653H16.5315C15.4529 31.3653 14.4185 30.9368 13.6558 30.1741C12.8931 29.4114 12.4647 28.377 12.4647 27.2984V24.0262C12.4647 23.5868 12.8209 23.2305 13.2604 23.2305ZM32.8892 23.2305C33.3286 23.2305 33.6849 23.5868 33.6849 24.0262V27.2984C33.6849 28.377 33.2564 29.4114 32.4938 30.1741C31.7311 30.9368 30.6967 31.3653 29.6181 31.3653H26.3459C25.9064 31.3653 25.5501 31.009 25.5501 30.5695C25.5501 30.13 25.9064 29.7737 26.3459 29.7737H29.6181C30.2746 29.7737 30.9042 29.5129 31.3684 29.0487C31.8326 28.5845 32.0934 27.9549 32.0934 27.2984V24.0262C32.0934 23.5868 32.4497 23.2305 32.8892 23.2305Z" fill="white"/>
</svg>
