<svg width="19" height="22" viewBox="0 0 19 22" fill="none" xmlns="http://www.w3.org/2000/svg">
<path d="M13.9189 14.1533C16.1635 12.8099 17.8651 11.7862 18.0118 11.7066C18.481 11.4347 18.9656 10.7148 18.0118 10.1557C17.7039 9.97981 16.046 8.98801 13.9189 7.70894L10.9701 10.955L13.9189 14.1533V14.1533Z" fill="#FFD900"/>
<path d="M10.972 10.955L1.58281 21.2698C1.8032 21.3016 2.052 21.2379 2.34534 21.0621C2.96121 20.6947 9.48993 16.8083 13.9207 14.1541L10.972 10.955Z" fill="#F43249"/>
<path d="M10.9693 10.955L13.918 7.72492C13.918 7.72492 3.00304 1.2319 2.34265 0.848605C2.09384 0.687977 1.81502 0.640264 1.56552 0.687977L10.9693 10.955Z" fill="#00EE76"/>
<path d="M10.9704 10.955L1.56666 0.687973C1.18501 0.784154 0.862488 1.15169 0.862488 1.90335V20.0544C0.862488 20.7424 1.11206 21.2379 1.58125 21.2857L10.9704 10.955Z" fill="#75E7FF"/>
</svg>
