<svg width="27" height="26" viewBox="0 0 27 26" fill="none" xmlns="http://www.w3.org/2000/svg">
<path fill-rule="evenodd" clip-rule="evenodd" d="M11.1591 2.00447C11.8352 1.41098 12.701 1.08411 13.5971 1.08411C14.4932 1.08411 15.3591 1.41098 16.0351 2.00447L23.5178 8.58257C24.0661 9.06552 24.5065 9.66169 24.8083 10.33C25.1101 10.9984 25.2669 11.724 25.2682 12.4585L25.2682 12.4603L25.2682 20.6779C25.2682 21.6718 24.8771 22.6249 24.1809 23.3279C23.4846 24.0308 22.5402 24.4259 21.5554 24.4264H5.64055C3.58868 24.4264 1.92597 22.7485 1.92597 20.6779L1.92598 12.4588C1.92712 11.7241 2.08383 10.9981 2.38561 10.3295C2.68739 9.66084 3.12727 9.06501 3.67579 8.58189L11.1591 2.00447ZM18.6946 22.5165H21.5545C22.0376 22.5163 22.5008 22.3225 22.8423 21.9777C23.1838 21.6329 23.3756 21.1654 23.3756 20.6779L23.3756 12.4621C23.3756 12.4617 23.3756 12.4625 23.3756 12.4621C23.3746 12 23.2759 11.5424 23.086 11.1219C22.8961 10.7012 22.6193 10.3263 22.2742 10.0223C22.2741 10.0222 22.2742 10.0224 22.2742 10.0223L14.7929 3.44542C14.4613 3.15432 14.0366 2.99399 13.5971 2.99399C13.1578 2.99399 12.7333 3.15418 12.4017 3.44504L4.92032 10.0208C4.92015 10.0209 4.92049 10.0206 4.92032 10.0208C4.57519 10.3249 4.2979 10.7003 4.10799 11.1211C3.91808 11.5419 3.81941 11.9987 3.81859 12.4611V20.6779C3.81859 21.6937 4.63395 22.5165 5.64055 22.5165H8.84552L8.84664 15.0921C8.84664 15.0921 8.84664 15.0922 8.84664 15.0921C8.84672 13.409 10.1986 12.0427 11.8685 12.0427H15.6727C17.3426 12.0427 18.6946 13.409 18.6946 15.0921V22.5165ZM10.7381 22.5165L10.7393 15.0923C10.7393 14.4632 11.2446 13.9525 11.8685 13.9525H15.6727C16.2966 13.9525 16.8019 14.463 16.8019 15.0921V22.5165H10.7381Z" fill="#1E1E1E"/>
</svg>
