<svg width="27" height="26" viewBox="0 0 27 26" fill="none" xmlns="http://www.w3.org/2000/svg">
<path d="M18.7514 14.7445C17.5959 14.7445 15.9793 15.4077 14.083 15.4077C11.1257 15.4077 10.5741 14.7445 9.41453 14.7445C6.42712 14.7445 4.00337 17.2396 4.00337 20.3149V21.3759C4.00337 22.4742 4.869 23.3653 5.93593 23.3653H22.23C23.297 23.3653 24.1626 22.4742 24.1626 21.3759V20.3149C24.1626 17.2396 21.7389 14.7445 18.7514 14.7445ZM22.23 21.3759H5.93593V20.3149C5.93593 18.342 7.49808 16.7339 9.41453 16.7339C10.0024 16.7339 10.9566 17.3971 14.083 17.3971C16.1645 17.3971 18.1596 16.7339 18.7514 16.7339C20.6679 16.7339 22.23 18.342 22.23 20.3149V21.3759ZM14.083 14.0814C17.2838 14.0814 19.8807 11.4082 19.8807 8.11321C19.8807 4.81827 17.2838 2.14502 14.083 2.14502C10.8822 2.14502 8.28531 4.81827 8.28531 8.11321C8.28531 11.4082 10.8822 14.0814 14.083 14.0814ZM14.083 4.13442C16.2128 4.13442 17.9481 5.92073 17.9481 8.11321C17.9481 10.3057 16.2128 12.092 14.083 12.092C11.9531 12.092 10.2179 10.3057 10.2179 8.11321C10.2179 5.92073 11.9531 4.13442 14.083 4.13442Z" fill="#1E1E1E"/>
</svg>
