<svg width="20" height="20" viewBox="0 0 20 20" fill="none" xmlns="http://www.w3.org/2000/svg">
<path d="M17.3437 1.94921C16.8476 1.49218 14.8398 0.0351481 10.3633 0.0156168C10.3633 0.0156168 5.08592 -0.300789 2.5156 2.05859C1.08592 3.48827 0.58201 5.58593 0.527322 8.18359C0.472635 10.7812 0.406228 15.6484 5.09763 16.9687H5.10154L5.09763 18.9844C5.09763 18.9844 5.06638 19.8008 5.60545 19.9648C6.25388 20.168 6.6367 19.5469 7.25779 18.8789C7.59763 18.5117 8.06638 17.9726 8.42185 17.5625C11.6328 17.832 14.0976 17.2148 14.3789 17.125C15.0273 16.9141 18.6953 16.4453 19.289 11.5781C19.9062 6.55468 18.9922 3.3828 17.3437 1.94921ZM17.8867 11.2109C17.3828 15.2734 14.4101 15.5312 13.8633 15.707C13.6289 15.7812 11.4609 16.3203 8.73826 16.1445C8.73826 16.1445 6.70701 18.5937 6.0742 19.2305C5.86717 19.4375 5.6406 19.418 5.64451 19.0078C5.64451 18.7383 5.66013 15.6601 5.66013 15.6601C5.65623 15.6601 5.65623 15.6601 5.66013 15.6601C1.68357 14.5586 1.91795 10.4141 1.96092 8.24609C2.00388 6.07812 2.41404 4.30077 3.62498 3.10546C5.80076 1.1328 10.2812 1.42577 10.2812 1.42577C14.0664 1.4414 15.8789 2.58202 16.3008 2.96484C17.6953 4.16015 18.4062 7.01952 17.8867 11.2109ZM12.457 8.05468C12.4726 8.39062 11.9687 8.41405 11.9531 8.07812C11.9101 7.21874 11.5078 6.80077 10.6797 6.7539C10.3437 6.73437 10.375 6.23046 10.707 6.24999C11.7969 6.30859 12.4023 6.93359 12.457 8.05468ZM13.25 8.49609C13.289 6.83984 12.2539 5.54296 10.289 5.39843C9.95701 5.37499 9.99217 4.87109 10.3242 4.89452C12.5898 5.05859 13.7969 6.61718 13.7539 8.5078C13.75 8.84374 13.2422 8.82812 13.25 8.49609ZM15.0859 9.01952C15.0898 9.35546 14.582 9.35937 14.582 9.02343C14.5586 5.83984 12.4375 4.10546 9.86326 4.08593C9.53123 4.08202 9.53123 3.58202 9.86326 3.58202C12.7422 3.60155 15.0586 5.58984 15.0859 9.01952ZM14.6445 12.8516V12.8594C14.2226 13.6016 13.4336 14.4219 12.6211 14.1601L12.6133 14.1484C11.789 13.918 9.84763 12.918 8.62107 11.9414C7.98826 11.4414 7.41013 10.8516 6.96482 10.2851C6.56248 9.78124 6.15623 9.18359 5.7617 8.46484C4.92967 6.96093 4.74607 6.28905 4.74607 6.28905C4.48435 5.47655 5.30076 4.68749 6.04685 4.26562H6.05467C6.41404 4.07812 6.75779 4.14062 6.98826 4.41796C6.98826 4.41796 7.47263 4.99609 7.67967 5.28124C7.87498 5.54687 8.1367 5.97265 8.27342 6.21093C8.5117 6.63671 8.36326 7.0703 8.12888 7.24999L7.66013 7.62499C7.42185 7.8164 7.4531 8.17187 7.4531 8.17187C7.4531 8.17187 8.14842 10.8008 10.7461 11.4648C10.7461 11.4648 11.1015 11.4961 11.2929 11.2578L11.6679 10.7891C11.8476 10.5547 12.2812 10.4062 12.707 10.6445C13.2812 10.9687 14.0117 11.4726 14.4961 11.9297C14.7695 12.1523 14.832 12.4922 14.6445 12.8516Z" fill="black"/>
</svg>
