<svg width="18" height="18" viewBox="0 0 18 18" fill="none" xmlns="http://www.w3.org/2000/svg">
<path d="M9.00083 0.666504C13.6033 0.666504 17.3342 4.39734 17.3342 8.99984C17.3342 13.6023 13.6033 17.3332 9.00083 17.3332C7.52812 17.3357 6.08131 16.946 4.80916 16.204L0.670827 17.3332L1.79749 13.1932C1.05496 11.9206 0.664912 10.4732 0.667493 8.99984C0.667493 4.39734 4.39833 0.666504 9.00083 0.666504ZM6.16083 5.08317L5.99416 5.08984C5.8864 5.09726 5.78112 5.12556 5.68416 5.17317C5.59381 5.22443 5.51129 5.28842 5.43916 5.36317C5.33916 5.45734 5.28249 5.539 5.22166 5.61817C4.91343 6.01892 4.74747 6.51093 4.74999 7.0165C4.75166 7.42484 4.85833 7.82234 5.02499 8.194C5.36583 8.94567 5.92666 9.7415 6.66666 10.479C6.84499 10.6565 7.01999 10.8348 7.20833 11.0007C8.12785 11.8102 9.22356 12.394 10.4083 12.7057L10.8817 12.7782C11.0358 12.7865 11.19 12.7748 11.345 12.7673C11.5876 12.7545 11.8246 12.6888 12.0392 12.5748C12.1482 12.5185 12.2547 12.4573 12.3583 12.3915C12.3583 12.3915 12.3936 12.3676 12.4625 12.3165C12.575 12.2332 12.6442 12.174 12.7375 12.0765C12.8075 12.0043 12.8658 11.9204 12.9125 11.8248C12.9775 11.689 13.0425 11.4298 13.0692 11.214C13.0892 11.049 13.0833 10.959 13.0808 10.9032C13.0775 10.814 13.0033 10.7215 12.9225 10.6823L12.4375 10.4648C12.4375 10.4648 11.7125 10.149 11.2692 9.94734C11.2228 9.92713 11.1731 9.91556 11.1225 9.91317C11.0655 9.9072 11.0078 9.91357 10.9535 9.93183C10.8991 9.95009 10.8493 9.97982 10.8075 10.019C10.8033 10.0173 10.7475 10.0648 10.145 10.7948C10.1104 10.8413 10.0628 10.8764 10.0082 10.8957C9.95355 10.915 9.89442 10.9176 9.83833 10.9032C9.78402 10.8887 9.73082 10.8703 9.67916 10.8482C9.57583 10.8048 9.53999 10.7882 9.46916 10.7582C8.99072 10.5498 8.54786 10.2677 8.15666 9.92234C8.05166 9.83067 7.95416 9.73067 7.85416 9.634C7.52634 9.32001 7.24062 8.96483 7.00416 8.57734L6.95499 8.49817C6.92021 8.44467 6.89169 8.38735 6.86999 8.32734C6.83833 8.20484 6.92083 8.1065 6.92083 8.1065C6.92083 8.1065 7.12333 7.88484 7.21749 7.76484C7.30916 7.64817 7.38666 7.53484 7.43666 7.454C7.53499 7.29567 7.56583 7.13317 7.51416 7.00734C7.28083 6.43734 7.03972 5.87039 6.79083 5.3065C6.74166 5.19484 6.59583 5.11484 6.46333 5.099C6.41833 5.09345 6.37333 5.089 6.32833 5.08567C6.21643 5.07925 6.10424 5.08037 5.99249 5.089L6.16083 5.08317Z" fill="black"/>
</svg>
